# xmcd
#
# Track frame offsets:
#	150
#	16978
#	33813
#	48953
#	64328
#	82685
#	102796
#	116326
#	135494
#	152603
#	168116
#	184585
#	202021
#	220256
#	234889
#	255115
#	272136
#	292329
#	310494
#	328468
#
# Disc length: 4639 seconds
#
# Revision: 0
# Processed by: cddbd v1.5.2PL0 Copyright (c) Steve Scherf et al.
# Submitted via: audiograbber 1.83.01
#
DISCID=0e121d14
DTITLE=Various Artist - Big Tunes Back to the 90s 2 CD3
DYEAR=1900
DGENRE=Pop
TTITLE0=The Prodigy - Out Of Space
TTITLE1=Shamen - Ebeneezer Goode
TTITLE2=Atlantic Ocean - Waterfall
TTITLE3=SL2 - On A Ragga Tip
TTITLE4=Tin Tin Out - The Feeling
TTITLE5=Gloworm - I Lift My Cup
TTITLE6=Mory Kante - Yeke Yeke
TTITLE7=Mr Roy - Something About You
TTITLE8=The Future Sound Of London - Papua New Guinea
TTITLE9=Jump - Funkatarium
TTITLE10=The Ethics - La Luna
TTITLE11=Jaydee - Plastic Dreams
TTITLE12=DSK - What Would We Do
TTITLE13=Big Time Charlie - On The Run
TTITLE14=Wink - Higher State Of Consciousness
TTITLE15=Brothers In Rhythm - Such A Good Feeling
TTITLE16=Nush - U Girls (Look So Sexy)
TTITLE17=Basement Jaxx - Fly Life
TTITLE18=USURA - Open Your Mind
TTITLE19=Klubheads - Klubbhopping
EXTD=Universal Music TV  - DANCENCD02
EXTT0=
EXTT1=
EXTT2=
EXTT3=
EXTT4=
EXTT5=
EXTT6=
EXTT7=
EXTT8=
EXTT9=
EXTT10=
EXTT11=
EXTT12=
EXTT13=
EXTT14=
EXTT15=
EXTT16=
EXTT17=
EXTT18=
EXTT19=
PLAYORDER=
